<svg version="1.1" xmlns="http://www.w3.org/2000/svg" xmlns:xlink="http://www.w3.org/1999/xlink" x="0px" y="0px" width="25" height="25" style="width: 25px;height: 25px;" viewBox="0 0 35 35" enable-background="new 0 0 35 35" xml:space="preserve">
                  <path fill="#999999" d="M17.8,2.6c-8.3,0-15,6.7-15,15c0,7.4,5.4,13.6,12.5,14.8V21.7h-2.5v-3.6h2.5v-2.4c0-1.6,0.4-2.8,1.2-3.6   c0.8-0.8,2.1-1.2,4-1.2h3.2v3.6h-1.9c-0.7,0-1.2,0.1-1.4,0.3c-0.2,0.2-0.3,0.6-0.3,1.1v2.2h3.6l-0.5,3.6h-3.2v10.7   c7.2-1.1,12.8-7.3,12.8-14.8C32.8,9.3,26.1,2.6,17.8,2.6z"></path>
                </svg>