<svg version="1.1" xmlns="http://www.w3.org/2000/svg" xmlns:xlink="http://www.w3.org/1999/xlink" x="0px" y="0px" viewBox="0 0 45 45" style="enable-background: new 0 0 45 45;" xml:space="preserve"> <g> <path d="M30.1,8.1V6.8c0-0.4-0.3-0.7-0.7-0.7h-2.8c-0.4,0-0.7,0.3-0.7,0.7v1.4c-0.1,0-0.2,0.2-0.2,0.3v0c0,0.2,0.1,0.3,0.3,0.3h4
		c0.2,0,0.3-0.1,0.3-0.3v0C30.4,8.3,30.3,8.2,30.1,8.1z"></path> <path d="M32.7,29c0.6-2.9,0.5-7.9,0.2-10.3c-0.3-2.4-1.5-3.9-2-5c-0.7-1.4-1-2.9-1.1-3.7H30c0.2,0,0.3-0.1,0.3-0.3v0
		c0-0.2-0.1-0.3-0.3-0.3h-4c-0.2,0-0.3,0.1-0.3,0.3v0c0,0.2,0.1,0.3,0.3,0.3h0.3c-0.1,0.8-0.5,2.3-1.1,3.7c-0.5,1.1-1.7,2.6-2,5
		c-0.3,2.4-0.4,7.4,0.2,10.3c0.4,1.8,0.5,2.4,0.2,3.5s-0.7,2.4-0.2,4.4c0.4,1.8,1.8,2,1.8,2h5.8c0,0,1.4-0.2,1.8-2
		c0.4-2,0-3.3-0.2-4.4C32.2,31.3,32.3,30.7,32.7,29z M30.5,25.8c-0.5,0.9-1.5,1.4-2.5,1.4c-0.7,0-1.4-0.2-1.9-0.7
		c-0.7-0.6-1-1.4-1-2.3c0-0.4,0.1-0.7,0.2-1c0.4-1,0.9-1.9,1.3-2.6c0.2-0.5,0.5-0.9,0.8-1.3l0.2-0.2l0,0c0-0.1,0.2-0.3,0.4-0.3
		c0.2,0,0.3,0.1,0.4,0.3l0.1,0.2c0.7,1.1,1.4,2.2,1.9,3.5c0.2,0.4,0.4,0.9,0.5,1.4C31.1,24.5,30.9,25.2,30.5,25.8z"></path> </g> <path d="M22.3,36.8c-0.4-2,0-3.3,0.2-4.4c0.2-0.9,0.2-1.4,0-2.5c-0.7,2.2-2.4,3.8-4.4,3.8c-2.6,0-4.7-2.7-4.7-6.1
	c0-3.4,2.1-6.1,4.7-6.1c1.5,0,2.9,0.9,3.7,2.4c0-2,0.1-3.9,0.2-5.2c0-0.3,0.1-0.6,0.2-0.9l-0.6-0.9c-0.6-0.9-1-2-1.2-3.1l-0.5-5.3
	C20,8.3,20,8.1,20,7.8c0.4-0.1,0.7-0.4,0.7-0.8c0-0.5-0.4-0.9-0.9-0.9h-3.2c-0.5,0-0.9,0.4-0.9,0.9c0,0.4,0.3,0.8,0.7,0.8
	c0,0.2,0,0.4-0.1,0.7l-0.5,5.3c-0.2,1.1-0.6,2.2-1.2,3.1l-0.9,1.3c-0.6,0.9-1,2-1,3.2v15c0,1,0.8,1.7,1.7,1.7H18h3.8
	c0.3,0,0.7-0.1,0.9-0.3C22.5,37.6,22.4,37.2,22.3,36.8z"></path> <path d="M20.9,26.6c-0.3-1-1.4-1.3-2.2-1c-0.1,0-0.3,0.1-0.4,0.2c-0.1-0.6-0.4-1.4-1.4-1.8l-0.2,0.3c0,0,1.1,0.3,1.3,1.5
	c-0.2-0.1-0.4-0.2-0.5-0.2c-0.8-0.3-1.9,0.1-2.2,1c-0.1,0.1-0.1,0.3-0.1,0.5c-0.2,1,0.4,2.1,1,2.9c0.1,0.1,0.3,0.3,0.4,0.4
	c0.3,0.3,0.8,0.4,1.3,0.2c0.2-0.1,0.3-0.1,0.5,0c0.4,0.1,1,0,1.3-0.2c0.1-0.1,0.3-0.3,0.4-0.4c0.6-0.7,1.2-1.8,1-2.9
	C21,26.8,21,26.7,20.9,26.6z M18.3,29.3c0,0-0.1,0-0.1,0c0,0-0.1,0-0.1,0c-0.4-0.4-0.7-0.8-0.7-1.3c0-0.5,0.2-1,0.7-1.3
	c0.1-0.1,0.2-0.1,0.3,0C18.8,27,19,27.5,19,28C19,28.5,18.7,29,18.3,29.3z"></path> </svg>