<svg xmlns="http://www.w3.org/2000/svg" xmlns:xlink="http://www.w3.org/1999/xlink" version="1.1" id="Capa_1" x="0px" y="0px" width="18px" height="18px" viewBox="0 0 18 18" enable-background="new 0 0 18 18" xml:space="preserve">
                <rect x="0.2" y="5.8" fill="#999999" width="3.9" height="12.2"></rect>
                <path fill="#999999" d="M16.8,7C16,6,14.9,5.6,13.6,5.6c-0.5,0-0.9,0.1-1.3,0.2c-0.4,0.1-0.7,0.3-1,0.5c-0.3,0.2-0.5,0.4-0.7,0.6   c-0.2,0.2-0.3,0.4-0.5,0.6V5.8H6.2l0,0.6c0,0.4,0,1.6,0,3.6c0,2,0,4.7,0,7.9h3.9v-6.8c0-0.4,0-0.7,0.1-1c0.2-0.4,0.4-0.8,0.7-1   c0.3-0.3,0.7-0.4,1.2-0.4c0.7,0,1.2,0.2,1.5,0.7c0.3,0.5,0.5,1.2,0.5,2V18H18v-7C18,9.2,17.6,7.9,16.8,7z"></path>
                <path fill="#999999" d="M2.2,0C1.5,0,1,0.2,0.6,0.6C0.2,1,0,1.5,0,2.1c0,0.6,0.2,1.1,0.6,1.5C1,4,1.5,4.2,2.1,4.2h0   c0.7,0,1.2-0.2,1.6-0.6c0.4-0.4,0.6-0.9,0.6-1.5c0-0.6-0.2-1.1-0.6-1.5C3.3,0.2,2.8,0,2.2,0z"></path>
            </svg>