<?xml version="1.0" encoding="utf-8"?>
<!-- Generator: Adobe Illustrator 16.0.0, SVG Export Plug-In . SVG Version: 6.00 Build 0)  -->
<!DOCTYPE svg PUBLIC "-//W3C//DTD SVG 1.1//EN" "http://www.w3.org/Graphics/SVG/1.1/DTD/svg11.dtd">
<svg version="1.1" id="Layer_1" xmlns="http://www.w3.org/2000/svg" xmlns:xlink="http://www.w3.org/1999/xlink" x="0px" y="0px"
	 width="20px" height="20px" viewBox="0 0 20 20" enable-background="new 0 0 20 20" xml:space="preserve">
<path fill="none" stroke="#FFFFFF" stroke-linecap="round" stroke-miterlimit="10" d="M13.857,13.858L19,19.001 M8.364,1
	c-1.457,0-2.88,0.432-4.091,1.241C3.062,3.05,2.118,4.2,1.561,5.546C1.003,6.891,0.857,8.372,1.142,9.8
	c0.284,1.428,0.985,2.741,2.015,3.77s2.342,1.731,3.771,2.016c1.428,0.283,2.909,0.139,4.254-0.42
	c1.346-0.557,2.496-1.5,3.305-2.711s1.24-2.635,1.24-4.091c0-1.953-0.775-3.826-2.156-5.207S10.316,1,8.364,1z"/>
</svg>
