<?xml version="1.0" encoding="UTF-8"?>
<svg width="100pt" height="100pt" version="1.1" viewBox="0 0 100 100" xmlns="http://www.w3.org/2000/svg">
 <g>
  <path d="m54.141 50.438c9.1328-2.0938 16.012-10.965 16.012-21.559 0-4.7617-1.375-11.262-3.6758-17.395-0.26172-0.70312-1.0469-1.0625-1.7578-0.79688-0.70312 0.26562-1.0625 1.0508-0.79688 1.7539 2.1914 5.8438 3.5 11.988 3.5 16.438 0 10.645-7.8164 19.305-17.422 19.305s-17.422-8.6562-17.422-19.301c0-4.4492 1.3086-10.594 3.5-16.438 0.26562-0.70703-0.09375-1.4922-0.79688-1.7539-0.70312-0.26562-1.4922 0.09375-1.7539 0.79688-2.3008 6.1328-3.6758 12.637-3.6758 17.395 0 10.594 6.8789 19.465 16.012 21.559 0.41406 0.18359 2.7773 1.3555 2.7773 4.3711v17.324c0 5.9141-10.535 8.0977-10.641 8.1211l0.003906 0.019532c-0.58984 0.15234-1.0273 0.67969-1.0273 1.3164 0 0.75391 0.60938 1.3633 1.3633 1.3633h23.332c0.75391 0 1.3633-0.60938 1.3633-1.3633 0-0.63672-0.4375-1.168-1.0273-1.3164l0.003907-0.019532c-0.11328-0.023437-10.648-2.207-10.648-8.125v-17.32c0-3.0195 2.3633-4.1914 2.7773-4.375z"/>
  <path d="m54.316 19.168c-4.2422 0-7.0469-1.2891-10.984-1.2891-3.8789 0-8.0742 2.2734-8.2031 2.3711-0.75391 3.1875-1.1875 6.2148-1.1875 8.6211 0 9.8906 7.2031 17.938 16.059 17.938s16.059-8.0469 16.059-17.938c0-3.0273-0.67969-7.0234-1.832-11.105-0.078124 0.019531-5.6641 1.4023-9.9102 1.4023z"/>
 </g>
</svg>
