<svg version="1.1" xmlns="http://www.w3.org/2000/svg" xmlns:xlink="http://www.w3.org/1999/xlink" x="0px" y="0px" style="width: 25px;height: 25px;" viewBox="9 7 18 18" enable-background="new 9 7 18 18" xml:space="preserve">
                <g><path fill="#999999" d="M26,13.4c0.1,0.2,0.1,0.6,0.2,0.9s0.1,0.7,0.1,1.1c0,0.4,0,0.7,0,1s0,0.6,0,0.8v0.3c0,1.9-0.1,3.3-0.3,4.2   c-0.1,0.4-0.3,0.7-0.6,0.9c-0.3,0.3-0.6,0.5-1,0.6c-0.4,0.1-1.1,0.2-2.2,0.2c-1.1,0.1-2.1,0.1-3,0.1h-1.4c-3.6,0-5.8-0.1-6.7-0.3   c-0.8-0.2-1.3-0.7-1.5-1.5c-0.1-0.4-0.2-0.9-0.2-1.6c-0.1-0.7-0.1-1.3-0.1-1.8v-0.8c0-1.9,0.1-3.2,0.3-4.1c0.1-0.4,0.3-0.7,0.6-1   c0.3-0.3,0.6-0.5,1-0.6c0.4-0.1,1.1-0.2,2.2-0.2c1.1-0.1,2.1-0.1,3-0.1h1.4c3.6,0,5.8,0.1,6.7,0.3c0.4,0.1,0.7,0.3,1,0.6   C25.7,12.7,25.9,13,26,13.4z M16.1,20.1l4.5-2.6L16.1,15V20.1z"></path></g>
              </svg>